<svg width="20" height="20" viewBox="0 0 20 20" fill="none" xmlns="http://www.w3.org/2000/svg">
<path d="M19.1367 7.41939C19.079 7.24958 18.9729 7.10037 18.8314 6.99018C18.6899 6.87999 18.5193 6.81365 18.3405 6.79934L13.1114 6.38383L10.8485 1.37482C10.7765 1.21349 10.6593 1.07646 10.511 0.980278C10.3628 0.884093 10.1899 0.832861 10.0132 0.832764C9.83654 0.832667 9.6636 0.883709 9.51527 0.979732C9.36695 1.07575 9.24958 1.21265 9.17734 1.3739L6.91452 6.38383L1.68537 6.79934C1.50968 6.81326 1.34172 6.8775 1.20158 6.98438C1.06144 7.09125 0.955065 7.23624 0.895169 7.40199C0.835274 7.56774 0.8244 7.74724 0.863848 7.91901C0.903295 8.09078 0.991394 8.24755 1.11761 8.37056L4.98191 12.1376L3.61523 18.0556C3.57374 18.2348 3.58704 18.4222 3.65341 18.5937C3.71978 18.7652 3.83616 18.9128 3.98745 19.0173C4.13874 19.1218 4.31794 19.1785 4.50182 19.1799C4.68569 19.1813 4.86574 19.1274 5.0186 19.0252L10.0129 15.6956L15.0073 19.0252C15.1635 19.1289 15.3478 19.1823 15.5353 19.1782C15.7228 19.1741 15.9045 19.1126 16.056 19.0022C16.2076 18.8917 16.3217 18.7374 16.3829 18.5602C16.4442 18.3829 16.4497 18.1912 16.3987 18.0107L14.7211 12.1404L18.8817 8.39625C19.1541 8.15043 19.2541 7.76702 19.1367 7.41939Z" fill="#F3CD03"/>
</svg>
