<svg width="20" height="20" viewBox="0 0 20 20" fill="none" xmlns="http://www.w3.org/2000/svg">
<path d="M4.99772 12.1377L3.63104 18.0557C3.58872 18.2349 3.60143 18.4227 3.6675 18.5945C3.73357 18.7664 3.84993 18.9143 4.00139 19.0191C4.15285 19.1238 4.33237 19.1804 4.5165 19.1814C4.70062 19.1825 4.8808 19.1281 5.03349 19.0252L10.0278 15.6956L15.0222 19.0252C15.1784 19.1289 15.3627 19.1823 15.5502 19.1782C15.7377 19.1741 15.9194 19.1127 16.0709 19.0022C16.2225 18.8917 16.3365 18.7375 16.3978 18.5602C16.4591 18.383 16.4646 18.1912 16.4136 18.0107L14.736 12.1404L18.8966 8.39628C19.0298 8.27629 19.125 8.11988 19.1703 7.94638C19.2156 7.77289 19.209 7.58992 19.1515 7.4201C19.0939 7.25029 18.9878 7.10107 18.8463 6.99091C18.7048 6.88075 18.5342 6.81448 18.3554 6.80029L13.1263 6.38386L10.8634 1.37485C10.7913 1.21356 10.674 1.0766 10.5257 0.980493C10.3774 0.88439 10.2045 0.833252 10.0278 0.833252C9.85114 0.833252 9.67822 0.88439 9.52995 0.980493C9.38168 1.0766 9.26439 1.21356 9.19223 1.37485L6.92942 6.38386L1.70027 6.79937C1.52457 6.81329 1.35661 6.87753 1.21647 6.98441C1.07634 7.09128 0.969957 7.23627 0.910062 7.40202C0.850167 7.56777 0.839292 7.74727 0.87874 7.91904C0.918188 8.09081 1.00629 8.24758 1.1325 8.37059L4.99772 12.1377ZM7.61459 8.16972C7.77831 8.15682 7.93555 8.10012 8.06982 8.00555C8.20408 7.91098 8.31044 7.78203 8.37773 7.63222L10.0278 3.98071L11.6779 7.63222C11.7452 7.78203 11.8516 7.91098 11.9859 8.00555C12.1201 8.10012 12.2774 8.15682 12.4411 8.16972L16.0843 8.45865L13.0841 11.159C12.8236 11.3938 12.7199 11.7552 12.8153 12.0927L13.9646 16.1148L10.5378 13.83C10.3874 13.729 10.2104 13.6751 10.0292 13.6751C9.84806 13.6751 9.67101 13.729 9.5206 13.83L5.93972 16.2175L6.90282 12.0478C6.93813 11.8944 6.93339 11.7346 6.88906 11.5836C6.84472 11.4326 6.76228 11.2955 6.64966 11.1856L3.8631 8.46874L7.61459 8.16972Z" fill="#F3CD03"/>
</svg>
